# xmcd
#
# Track frame offsets: 
#        182
#        19377
#        40700
#        58127
#        72905
#        86635
#        106652
#        120835
#        134477
#        149847
#        177942
#        191800
#        207245
#
# Disc length: 3010 seconds
#
# Revision: 1
# Processed by: cddbd v1.5.2PL0 Copyright (c) Steve Scherf et al.
# Submitted via: ExactAudioCopyFreeDBPlugin 1.0
#
DISCID=c00bc00d
DTITLE=Trash Mavericks - Lucky 13
DYEAR=1994
DGENRE=Country
TTITLE0=Heartbreak On Wheels
TTITLE1=Hogwild
TTITLE2=Old Dog New Tricks
TTITLE3=Luck Ran Out
TTITLE4=Brand New Start
TTITLE5=No More Blondes
TTITLE6=Hell's Too Full
TTITLE7=Snakeskin' Cadillac
TTITLE8=Woe Is Me
TTITLE9=Doin' Time
TTITLE10=Queen Of The Washing Machine
TTITLE11=New Orleans
TTITLE12=Last Call
EXTD=jeremy
EXTT0=
EXTT1=
EXTT2=
EXTT3=
EXTT4=
EXTT5=
EXTT6=
EXTT7=
EXTT8=
EXTT9=
EXTT10=
EXTT11=
EXTT12=
PLAYORDER=
